<?xml version="1.0" standalone="no"?>
<!DOCTYPE svg PUBLIC "-//W3C//DTD SVG 20010904//EN"
 "http://www.w3.org/TR/2001/REC-SVG-20010904/DTD/svg10.dtd">
<svg version="1.0" xmlns="http://www.w3.org/2000/svg"
 width="330.000000pt" height="330.000000pt" viewBox="0 0 330.000000 330.000000"
 preserveAspectRatio="xMidYMid meet">
<metadata>
Created by potrace 1.14, written by Peter Selinger 2001-2017
</metadata>
<g transform="translate(0.000000,330.000000) scale(0.100000,-0.100000)"
fill="#000000" stroke="none">
<path d="M0 1720 c0 -1361 2 -1580 14 -1573 8 4 36 29 63 54 27 26 71 66 99
89 27 24 80 70 118 104 138 121 173 152 245 211 41 33 94 78 120 101 25 23 54
45 64 51 25 13 119 96 192 169 33 33 74 66 90 72 17 7 110 32 208 56 184 46
202 54 238 113 24 39 22 43 -23 52 l-32 7 39 24 c33 20 37 24 20 27 -54 10
-103 35 -114 59 -15 34 -15 35 14 28 31 -8 69 1 90 22 14 14 20 14 65 -2 48
-17 50 -19 55 -63 4 -25 13 -66 21 -90 8 -25 14 -74 14 -110 0 -122 83 -249
207 -315 56 -31 57 -32 83 -111 22 -66 31 -81 49 -83 33 -5 39 4 57 93 11 55
25 90 43 111 77 91 120 160 121 192 0 18 39 93 60 117 10 11 36 56 59 101 34
69 48 85 91 112 47 29 56 31 106 26 35 -4 54 -11 54 -20 0 -15 -54 -58 -90
-73 l-25 -10 24 0 c23 -1 24 -2 6 -21 -10 -11 -24 -20 -32 -20 -7 0 -13 -4
-13 -9 0 -5 -9 -11 -21 -14 -20 -5 -20 -6 3 -33 41 -48 50 -55 79 -61 16 -3
29 -9 29 -13 0 -5 17 -14 38 -20 20 -7 46 -18 57 -24 11 -7 51 -25 89 -41 118
-49 171 -82 189 -117 13 -26 19 -86 27 -285 5 -139 15 -331 22 -428 l11 -175
189 0 188 0 0 1650 0 1650 -1650 0 -1650 0 0 -1580z m2277 924 c29 -22 52 -51
79 -99 10 -17 20 -19 85 -17 51 2 86 -2 112 -12 57 -25 51 -38 -24 -50 -21 -4
-49 -16 -63 -27 l-27 -21 41 -20 c26 -13 54 -39 76 -72 31 -46 34 -57 34 -122
0 -66 2 -73 26 -89 36 -23 64 -92 70 -172 3 -38 10 -81 16 -96 13 -33 80 -71
114 -64 13 2 24 0 24 -4 0 -15 -75 -64 -119 -79 -22 -7 -41 -17 -41 -21 0 -13
70 -31 96 -25 21 6 25 3 22 -10 -9 -46 -137 -109 -233 -115 l-50 -3 -3 37 c-2
20 -7 37 -11 37 -5 0 -36 -38 -70 -85 -34 -47 -69 -85 -76 -85 -8 0 -19 -10
-26 -21 -11 -21 -16 -22 -136 -16 -156 6 -167 13 -161 101 7 95 26 103 196 80
57 -7 65 1 31 32 -35 31 -67 88 -84 150 -9 33 -18 64 -20 70 -2 6 -37 -22 -78
-62 -55 -53 -90 -78 -132 -93 -61 -23 -95 -27 -95 -11 0 6 4 10 9 10 12 0 87
147 95 185 l6 30 -23 -30 c-43 -58 -197 -203 -227 -214 -17 -5 -30 -8 -30 -6
0 2 11 21 25 41 35 51 31 64 -7 27 -18 -17 -55 -44 -83 -60 l-50 -30 -1 -84
c-2 -108 -2 -109 -14 -109 -11 0 -62 77 -86 131 -17 36 -17 36 -93 42 -42 3
-92 11 -111 16 -36 11 -110 70 -110 88 0 6 -7 16 -15 23 -21 17 -11 25 28 22
34 -2 107 33 115 56 2 8 -11 12 -48 12 -45 0 -55 4 -92 38 l-41 39 66 -1 c56
-1 70 2 89 22 21 20 24 35 29 141 5 105 10 126 38 187 22 47 50 86 88 122 54
51 55 52 27 52 -34 0 -122 -25 -140 -40 -29 -25 -20 9 14 49 55 67 116 91 233
91 99 0 95 -1 155 49 39 32 155 73 245 86 90 13 224 -30 291 -93 15 -14 30
-23 33 -20 11 11 -22 73 -54 102 -17 17 -31 34 -31 39 0 15 63 -4 97 -29z
m-402 -1068 l60 -13 3 -49 c2 -28 -2 -62 -7 -77 l-11 -27 -122 0 c-68 0 -140
3 -160 6 l-38 7 0 54 c0 59 20 109 47 117 25 7 155 -4 228 -18z"/>
<path d="M2286 1732 c-7 -21 8 -134 20 -155 4 -6 16 -18 26 -25 10 -7 18 -23
18 -35 0 -18 2 -19 10 -7 13 19 13 127 0 132 -5 2 -22 27 -38 57 -25 45 -31
50 -36 33z"/>
<path d="M884 228 c-55 -28 -128 -69 -164 -91 -36 -22 -100 -60 -143 -86 l-78
-46 247 -3 c136 -1 248 -1 249 0 1 2 6 65 10 141 6 117 4 137 -8 137 -8 0 -59
-23 -113 -52z"/>
</g>
</svg>
